<svg width="90" height="25" viewBox="0 0 90 25" fill="none" xmlns="http://www.w3.org/2000/svg">
<g clip-path="url(#clip0_6_3940)">
<path d="M0.976558 10.5713C0.976558 9.3268 1.48926 8.32721 2.51465 7.57253C3.54004 6.8178 4.90316 6.44044 6.604 6.44044C8.26415 6.44044 9.60285 6.82584 10.6201 7.5966C11.6373 8.35932 12.1582 9.37495 12.1826 10.6435H8.8867C8.84605 10.1216 8.61815 9.70816 8.2031 9.40307C7.7881 9.08993 7.23875 8.93341 6.5552 8.93341C5.91225 8.93341 5.3955 9.06586 5.0049 9.3308C4.61426 9.58775 4.41894 9.92896 4.41894 10.3545C4.41894 11.0048 5.0171 11.4665 6.2134 11.7394L8.74025 12.2814C10.0911 12.5865 11.0555 13.016 11.6333 13.57C12.2192 14.124 12.5122 14.8947 12.5122 15.8823C12.5122 17.1668 11.9669 18.2026 10.8764 18.9894C9.78595 19.7682 8.35775 20.1576 6.5918 20.1576C4.84212 20.1576 3.43424 19.7762 2.36816 19.0135C1.31022 18.2427 0.736488 17.211 0.646973 15.9184H4.12597C4.21549 16.4804 4.47998 16.9139 4.91943 17.219C5.3589 17.5161 5.9489 17.6647 6.68945 17.6647C7.39745 17.6647 7.9549 17.5402 8.3618 17.2913C8.7687 17.0344 8.97215 16.6891 8.97215 16.2556C8.97215 15.9103 8.84195 15.6374 8.58155 15.4367C8.32925 15.236 7.89795 15.0633 7.2876 14.9188L4.80957 14.3648C2.25423 13.7948 0.976558 12.5303 0.976558 10.5713ZM13.1787 19.9287V6.66928H16.7431V19.9287H13.1787ZM14.9609 5.2241C14.4319 5.2241 13.9803 5.0475 13.6059 4.69421C13.2316 4.34095 13.0444 3.90338 13.0444 3.38151C13.0444 2.85965 13.2316 2.42609 13.6059 2.08086C13.9803 1.72759 14.4319 1.55096 14.9609 1.55096C15.498 1.55096 15.9538 1.72759 16.3281 2.08086C16.7024 2.42609 16.8896 2.85965 16.8896 3.38151C16.8896 3.90338 16.7024 4.34095 16.3281 4.69421C15.9538 5.0475 15.498 5.2241 14.9609 5.2241ZM17.9712 19.9287V6.66928H21.4135V9.04178H21.4868C22.2762 7.33166 23.6759 6.4766 25.686 6.4766C27.1671 6.4766 28.3146 6.91414 29.1284 7.78928C29.9422 8.65638 30.3491 9.86873 30.3491 11.4263V19.9287H26.7846V12.1609C26.7846 11.2698 26.5731 10.5873 26.1499 10.1136C25.7267 9.63994 25.1001 9.40307 24.27 9.40307C23.4236 9.40307 22.7563 9.67605 22.268 10.222C21.7798 10.7599 21.5356 11.4745 21.5356 12.3657V19.9287H17.9712ZM31.2353 10.5713C31.2353 9.3268 31.748 8.32721 32.7734 7.57253C33.7988 6.8178 35.1619 6.44044 36.8628 6.44044C38.5229 6.44044 39.8616 6.82584 40.8789 7.5966C41.8961 8.35932 42.417 9.37495 42.4414 10.6435H39.1455C39.1048 10.1216 38.8769 9.70816 38.4619 9.40307C38.0469 9.08993 37.4975 8.93341 36.8139 8.93341C36.171 8.93341 35.6543 9.06586 35.2636 9.3308C34.873 9.58775 34.6777 9.92896 34.6777 10.3545C34.6777 11.0048 35.2759 11.4665 36.4721 11.7394L38.999 12.2814C40.3499 12.5865 41.3143 13.016 41.8921 13.57C42.478 14.124 42.771 14.8947 42.771 15.8823C42.771 17.1668 42.2257 18.2026 41.1353 18.9894C40.0448 19.7682 38.6166 20.1576 36.8506 20.1576C35.1009 20.1576 33.693 19.7762 32.6269 19.0135C31.569 18.2427 30.9953 17.211 30.9057 15.9184H34.3847C34.4743 16.4804 34.7388 16.9139 35.1782 17.219C35.6177 17.5161 36.2077 17.6647 36.9482 17.6647C37.6562 17.6647 38.2137 17.5402 38.6206 17.2913C39.0275 17.0344 39.2309 16.6891 39.2309 16.2556C39.2309 15.9103 39.1007 15.6374 38.8403 15.4367C38.588 15.236 38.1567 15.0633 37.5464 14.9188L35.0683 14.3648C32.513 13.7948 31.2353 12.5303 31.2353 10.5713ZM51.14 6.51271C52.849 6.51271 54.196 7.11891 55.1805 8.33125C56.1655 9.53556 56.6575 11.1895 56.6575 13.293C56.6575 15.3965 56.1655 17.0545 55.1805 18.2668C54.204 19.4791 52.8735 20.0853 51.189 20.0853C50.2205 20.0853 49.3742 19.8766 48.6499 19.4591C47.9256 19.0416 47.3803 18.4555 47.0141 17.7008H46.9409V24.2643H43.3764V6.66928H46.8921V8.93341H46.9653C47.3234 8.18672 47.8727 7.5966 48.6133 7.16305C49.3538 6.72951 50.196 6.51271 51.14 6.51271ZM49.956 17.2432C50.884 17.2432 51.6245 16.8859 52.1775 16.1713C52.731 15.4567 53.008 14.4973 53.008 13.293C53.008 12.1047 52.727 11.1533 52.1655 10.4388C51.612 9.7162 50.8755 9.35492 49.956 9.35492C49.0446 9.35492 48.3121 9.7162 47.7588 10.4388C47.2054 11.1614 46.9287 12.1168 46.9287 13.3051C46.9287 14.4933 47.2054 15.4487 47.7588 16.1713C48.3121 16.8859 49.0446 17.2432 49.956 17.2432ZM57.373 19.9287V6.66928H60.9375V19.9287H57.373ZM59.1555 5.2241C58.6265 5.2241 58.1745 5.0475 57.8005 4.69421C57.426 4.34095 57.239 3.90338 57.239 3.38151C57.239 2.85965 57.426 2.42609 57.8005 2.08086C58.1745 1.72759 58.6265 1.55096 59.1555 1.55096C59.6925 1.55096 60.148 1.72759 60.5225 2.08086C60.897 2.42609 61.084 2.85965 61.084 3.38151C61.084 3.90338 60.897 4.34095 60.5225 4.69421C60.148 5.0475 59.6925 5.2241 59.1555 5.2241ZM62.1655 19.9287V6.66928H65.608V9.04178H65.681C65.909 8.23087 66.2995 7.60864 66.853 7.17509C67.4065 6.7335 68.082 6.51271 68.8795 6.51271C69.3025 6.51271 69.6485 6.5569 69.917 6.6452V9.75231C69.567 9.61582 69.1275 9.5476 68.5985 9.5476C67.6955 9.5476 66.9915 9.8085 66.487 10.3304C65.9825 10.8522 65.73 11.5788 65.73 12.5102V19.9287H62.1655ZM75.747 9.06586C74.9335 9.06586 74.2535 9.3308 73.7085 9.86069C73.1715 10.3906 72.8705 11.0811 72.805 11.9321H78.6035C78.571 11.065 78.2945 10.3705 77.7735 9.84865C77.2525 9.3268 76.577 9.06586 75.747 9.06586ZM78.6525 15.8823H81.936C81.7405 17.1668 81.0855 18.2026 79.9705 18.9894C78.856 19.7682 77.4805 20.1576 75.8445 20.1576C73.802 20.1576 72.191 19.5514 71.0105 18.339C69.839 17.1267 69.253 15.4648 69.253 13.3532C69.253 11.2416 69.835 9.56363 70.9985 8.31917C72.1705 7.06672 73.741 6.44044 75.7105 6.44044C77.6475 6.44044 79.1855 7.0346 80.3245 8.22283C81.472 9.41111 82.046 11.0129 82.046 13.028V14.1119H72.7685V14.3287C72.7685 15.2841 73.0575 16.0589 73.6355 16.653C74.213 17.2391 74.97 17.5322 75.906 17.5322C76.581 17.5322 77.163 17.3876 77.6515 17.0986C78.148 16.8016 78.4815 16.3961 78.6525 15.8823Z" fill="black"/>
<path d="M89.975 8.08989L83.3 7.79391L88.75 14.5519L89.975 8.08989Z" fill="black"/>
</g>
<defs>
<clipPath id="clip0_6_3940">
<rect width="90" height="24.2697" fill="white"/>
</clipPath>
</defs>
</svg>
